<?xml version="1.0" standalone="no"?>
<!DOCTYPE svg PUBLIC "-//W3C//DTD SVG 20010904//EN"
 "http://www.w3.org/TR/2001/REC-SVG-20010904/DTD/svg10.dtd">
<svg version="1.0" xmlns="http://www.w3.org/2000/svg"
 width="512.000000pt" height="512.000000pt" viewBox="0 0 512.000000 512.000000"
 preserveAspectRatio="xMidYMid meet">
<metadata>
Created by potrace 1.14, written by Peter Selinger 2001-2017
</metadata>
<g transform="translate(0.000000,512.000000) scale(0.100000,-0.100000)"
fill="#000000" stroke="none">
<path d="M1028 5114 c-3 -3 -16 -7 -29 -8 -28 -4 -25 -3 -149 -44 -52 -18 -99
-33 -104 -34 -10 -3 -90 -44 -145 -74 -19 -10 -50 -34 -70 -52 -19 -17 -36
-30 -38 -28 -3 2 -17 -8 -32 -22 -15 -15 -45 -43 -67 -62 -21 -19 -51 -49 -65
-67 -15 -18 -30 -29 -34 -25 -4 4 -5 3 -4 -3 4 -13 -51 -95 -64 -95 -6 0 -7
-3 -4 -7 4 -3 -4 -20 -17 -37 -36 -48 -118 -227 -132 -288 -1 -5 -2 -9 -4 -10
-4 -6 -18 -71 -19 -96 -1 -7 -4 -11 -9 -9 -4 3 -7 -12 -6 -34 0 -21 -2 -39 -6
-39 -3 0 -5 -12 -4 -27 1 -16 -1 -32 -5 -38 -3 -5 -6 -28 -8 -50 -1 -22 -2
-40 -2 -40 -5 0 -1 -2807 3 -2830 3 -16 9 -55 12 -85 4 -30 10 -60 15 -65 4
-6 4 -17 -1 -25 -6 -10 -4 -20 7 -32 9 -11 14 -29 11 -47 -2 -17 -1 -28 4 -25
13 8 9 -20 -5 -36 -10 -12 -9 -12 4 -2 14 10 17 9 22 -10 4 -13 1 -26 -6 -30
-8 -5 -6 -8 7 -8 12 0 16 -5 12 -15 -3 -8 -1 -15 4 -15 6 0 10 -9 10 -20 0
-11 4 -20 10 -20 5 0 15 -18 21 -40 7 -22 16 -40 21 -40 5 0 6 -5 3 -10 -4 -6
-11 -7 -17 -4 -7 4 -8 2 -4 -5 4 -6 11 -9 15 -7 4 3 13 0 21 -5 12 -8 12 -12
3 -16 -7 -2 -13 -9 -13 -14 0 -6 4 -8 9 -4 13 8 53 -36 47 -52 -3 -7 -1 -13 5
-13 11 0 46 -31 42 -37 -8 -9 -2 -23 7 -18 6 3 10 -1 10 -9 0 -9 5 -16 11 -16
6 0 9 -7 6 -14 -4 -11 -1 -13 10 -9 12 5 14 1 9 -18 -3 -13 -3 -18 0 -11 3 6
10 12 15 12 6 0 7 -4 4 -10 -3 -5 2 -10 11 -10 16 0 16 -2 -2 -22 -10 -13 -12
-17 -4 -10 23 20 42 15 35 -10 -5 -18 -4 -20 5 -8 9 13 13 12 29 -7 10 -12 21
-19 25 -16 3 4 6 1 6 -6 0 -7 5 -9 12 -5 7 4 8 3 4 -4 -4 -6 -12 -10 -19 -8
-7 1 -9 1 -4 -1 4 -3 4 -10 1 -15 -5 -7 -2 -8 7 -2 23 14 37 13 51 -4 7 -9 8
-13 2 -9 -6 3 -11 0 -11 -8 0 -10 5 -11 19 -4 13 7 18 6 18 -2 0 -7 3 -9 7 -5
4 3 13 -6 20 -21 7 -16 11 -20 8 -11 -2 10 0 18 5 18 6 0 10 -5 10 -11 0 -5 4
-8 9 -5 5 3 14 -1 21 -9 7 -8 9 -15 5 -15 -5 0 0 -9 10 -20 17 -19 41 -18 29
1 -3 5 -10 7 -15 4 -5 -4 -9 -1 -9 4 0 16 16 13 30 -4 10 -12 10 -18 0 -30 -7
-8 -8 -15 -3 -15 6 0 15 10 21 23 11 20 11 18 7 -13 l-5 -35 14 30 c8 17 15
24 15 17 1 -7 7 -12 14 -11 17 3 47 -11 47 -22 0 -5 -7 -9 -16 -9 -9 0 -12 5
-8 13 4 6 4 9 -1 5 -4 -4 -17 -3 -29 3 -21 10 -21 10 -1 -6 11 -9 19 -21 17
-27 -2 -6 4 -8 11 -5 8 3 20 0 27 -6 10 -9 11 -9 6 1 -4 6 -5 16 -1 22 8 13
35 1 35 -16 0 -11 275 -13 1695 -14 1356 0 1695 2 1695 12 0 9 3 10 8 2 4 -7
44 -11 112 -9 102 2 105 2 103 23 -3 22 -2 22 26 8 32 -17 47 -10 28 12 -10
13 -9 14 3 10 8 -3 15 -15 14 -27 0 -15 2 -19 10 -11 7 7 7 17 -2 31 -12 18
-11 20 5 15 11 -3 28 1 39 9 12 10 14 13 3 10 -9 -4 -16 0 -16 8 0 16 42 18
67 3 8 -5 12 -6 9 -2 -4 4 3 18 15 31 15 17 24 21 33 13 9 -7 13 -7 13 0 0 6
-6 12 -12 15 -7 2 -10 8 -6 12 4 4 16 2 25 -6 16 -13 17 -12 4 4 -12 16 -12
20 3 35 17 16 18 16 12 -3 -3 -11 -1 -27 5 -35 9 -13 10 -13 8 0 -4 35 2 49
23 56 13 5 27 7 31 6 5 -1 6 2 2 7 -3 6 4 15 16 22 20 10 21 9 15 -7 -6 -15
-5 -17 5 -6 10 9 10 15 1 24 -18 18 -15 33 4 18 12 -11 15 -11 12 1 -2 8 3 13
12 11 11 -2 10 1 -3 12 -13 10 -15 15 -5 19 7 2 1 4 -14 3 -14 0 -26 -5 -25
-11 1 -5 -4 -9 -11 -7 -8 1 -11 -1 -8 -6 3 -5 0 -9 -7 -9 -7 0 -21 -4 -32 -8
-11 -4 -3 5 18 19 23 16 35 32 31 39 -4 7 -4 9 1 5 4 -4 13 0 20 9 9 13 14 13
20 3 5 -9 4 -11 -3 -6 -7 4 -12 3 -12 -3 0 -5 12 -9 28 -7 21 1 27 7 25 22 -1
12 4 21 12 22 8 1 22 3 30 4 11 1 12 5 4 14 -6 8 -6 14 0 18 5 3 11 3 13 -2 1
-4 12 1 22 12 16 16 16 18 3 13 -9 -3 -19 -2 -22 2 -7 12 24 23 37 14 7 -4 8
-1 3 7 -5 8 -3 11 6 8 8 -3 13 -11 11 -17 -1 -7 3 -9 9 -6 7 5 7 11 1 17 -6 6
-8 16 -6 23 5 13 -11 28 -33 31 -7 1 -13 -2 -13 -7 0 -8 15 -13 33 -10 14 2 7
-17 -9 -23 -22 -9 -26 -8 -18 6 4 7 3 8 -5 4 -6 -4 -9 -11 -6 -16 3 -4 -2 -10
-10 -14 -20 -7 -28 10 -16 31 7 13 10 14 11 4 0 -18 15 -4 15 15 0 7 4 13 9
13 16 -1 25 25 14 38 -8 11 -7 12 8 6 17 -6 18 -5 4 12 -9 11 -10 16 -2 11 7
-4 15 -1 18 8 7 18 31 21 36 5 2 -7 9 -5 17 5 12 14 12 16 -4 10 -15 -6 -16
-4 -5 16 11 21 13 21 22 7 5 -10 14 -17 19 -17 6 0 3 8 -6 17 -15 15 -16 18
-2 28 14 10 13 12 -3 23 -21 13 -29 6 -25 -21 2 -10 -1 -14 -7 -11 -7 5 -8 2
-3 -6 5 -9 4 -11 -3 -6 -8 5 -10 2 -6 -8 3 -9 2 -16 -3 -16 -5 0 -9 9 -10 20
-1 11 2 20 8 20 5 0 9 6 9 14 0 23 28 40 43 27 10 -8 14 -7 14 4 0 8 -4 12 -9
9 -4 -3 -8 -1 -8 5 0 6 -7 8 -15 5 -8 -4 -15 -2 -15 3 0 11 39 11 58 0 6 -5
12 -4 12 0 0 5 -9 14 -21 21 -12 8 -18 9 -15 3 5 -7 1 -8 -10 -4 -11 4 -13 8
-6 11 7 2 10 7 7 11 -2 5 1 16 9 26 11 15 13 16 13 1 0 -9 -4 -16 -9 -16 -5 0
-6 -4 -3 -10 3 -5 14 -10 23 -10 10 0 13 3 7 8 -12 8 -18 32 -9 32 4 0 12 -7
19 -16 10 -15 12 -14 10 7 -1 13 -8 24 -16 25 -33 2 -39 4 -39 13 0 5 9 13 20
16 11 4 18 11 14 16 -3 5 -11 6 -17 2 -8 -5 -8 -2 0 9 7 8 10 18 6 21 -3 4 -1
7 6 7 7 0 9 5 6 10 -8 13 8 13 21 0 6 -6 10 -3 10 9 0 10 -7 18 -15 17 -7 -1
-16 5 -18 12 -3 6 0 12 7 12 6 0 8 -6 4 -13 -5 -9 -4 -9 6 0 7 6 13 30 14 52
2 32 -1 38 -11 29 -18 -15 -16 -3 3 16 9 9 11 16 4 16 -6 0 -8 5 -3 12 10 17
11 68 1 96 -5 15 -4 21 2 17 12 -8 12 -8 1 33 -6 20 -6 30 0 27 12 -8 11 2 -2
27 -6 11 -7 18 -2 15 11 -7 9 235 -2 252 -5 9 -4 12 3 7 12 -7 10 53 -3 75 -5
7 -4 10 1 6 12 -7 11 134 -1 153 -5 7 -4 11 1 7 12 -7 11 1493 0 1512 -6 8 -5
12 0 8 12 -7 11 454 -1 473 -5 9 -4 11 3 6 7 -4 12 -3 12 3 0 5 -5 13 -10 16
-6 4 -8 10 -5 14 9 16 13 81 4 76 -10 -7 -12 8 -2 19 4 3 7 15 8 26 1 16 -1
18 -14 7 -14 -10 -14 -9 1 14 17 27 7 65 -15 53 -9 -5 -9 -4 0 6 9 10 9 18 1
34 -10 19 -10 20 6 7 14 -12 16 -12 10 3 -3 9 -10 16 -16 16 -5 0 -6 5 -3 10
3 6 1 10 -5 10 -7 0 -10 7 -7 15 4 8 2 17 -3 20 -5 3 -7 19 -5 35 2 17 0 30
-5 30 -6 0 -10 11 -10 25 0 14 -4 25 -10 25 -5 0 -10 5 -10 11 0 5 6 7 13 3 6
-4 5 1 -4 12 -20 23 -33 57 -19 49 6 -3 10 -1 10 4 0 6 -6 11 -14 11 -19 0
-27 25 -13 40 9 10 9 11 0 6 -13 -7 -39 31 -29 41 3 4 -3 13 -14 20 -15 10
-19 21 -14 35 3 11 2 18 -2 15 -5 -3 -15 1 -22 9 -8 9 -9 14 -2 14 6 0 8 5 5
11 -4 6 -10 8 -13 5 -9 -10 -34 33 -26 46 4 6 3 9 -2 6 -10 -7 -27 11 -32 32
-2 8 -12 20 -23 28 -10 7 -19 17 -19 23 0 5 -18 26 -40 48 -22 21 -40 44 -40
50 0 7 -5 9 -12 5 -7 -5 -9 -2 -5 9 4 12 2 14 -10 10 -13 -5 -15 -2 -10 11 5
11 3 15 -5 10 -6 -4 -16 -1 -22 7 -6 8 -24 22 -39 32 -15 10 -25 23 -21 29 4
7 3 8 -4 4 -7 -4 -12 -2 -12 4 0 6 -4 9 -8 6 -5 -3 -19 5 -33 17 -14 12 -31
23 -39 25 -8 2 -18 8 -21 14 -3 5 -10 10 -15 11 -5 1 -8 4 -7 7 1 3 -10 7 -25
8 -15 1 -29 7 -30 12 -2 6 -9 7 -15 3 -7 -4 -8 0 -3 13 6 15 4 16 -5 7 -7 -8
-17 -8 -28 -2 -18 10 -70 31 -87 34 -6 2 -38 11 -70 20 -58 18 -68 20 -132 28
-18 2 -35 7 -39 10 -7 8 -2998 9 -3005 1z m4077 -1114 c3 -5 1 -10 -4 -10 -6
0 -11 5 -11 10 0 6 2 10 4 10 3 0 8 -4 11 -10z m-3120 -2149 c3 -5 2 -12 -3
-15 -5 -3 -9 1 -9 9 0 17 3 19 12 6z m3121 -849 c0 -10 -6 -19 -13 -19 -8 0
-9 6 -2 19 5 10 11 18 12 18 2 0 3 -8 3 -18z m-61 -311 c3 -5 2 -12 -3 -15 -5
-3 -9 1 -9 9 0 17 3 19 12 6z m-181 -246 c-5 -11 -2 -13 10 -9 9 3 13 11 10
16 -4 6 3 5 15 -1 11 -7 21 -15 21 -18 0 -3 -3 -3 -7 0 -9 10 -34 -14 -26 -26
3 -6 1 -7 -5 -3 -7 4 -12 1 -13 -6 0 -11 -2 -11 -6 0 -4 10 -8 9 -18 -5 -10
-13 -10 -20 -2 -25 6 -4 8 -10 4 -14 -4 -4 -14 1 -22 12 -13 17 -12 21 8 38
12 10 22 23 23 30 2 20 4 26 9 26 2 0 2 -7 -1 -15z m-54 -145 c0 -5 -6 -9 -12
-7 -7 1 -12 -6 -12 -15 1 -10 -2 -18 -6 -18 -4 0 -17 -9 -30 -20 -12 -11 -27
-17 -31 -14 -5 3 -9 0 -9 -7 0 -7 -7 -4 -16 7 -8 10 -13 13 -9 7 3 -7 -9 -31
-27 -53 -27 -32 -38 -38 -60 -35 -15 3 -30 0 -33 -5 -4 -7 3 -9 19 -6 28 5 45
-9 21 -18 -8 -3 -15 0 -15 6 0 7 -5 6 -15 -2 -12 -10 -18 -10 -30 0 -16 13
-18 9 -18 -33 0 -9 -4 -17 -8 -17 -5 0 -9 5 -9 10 0 6 -11 3 -25 -6 -21 -14
-23 -19 -13 -32 12 -14 10 -14 -12 -2 -29 15 -40 29 -39 50 0 8 4 5 9 -7 6
-15 15 -21 24 -17 17 6 17 24 1 37 -5 5 1 5 14 2 17 -5 22 -4 16 5 -5 8 -4 11
2 7 6 -4 13 0 16 8 4 8 15 12 27 10 16 -3 20 0 16 10 -3 9 0 12 10 8 9 -3 14
1 14 13 0 17 1 16 16 -2 15 -18 15 -18 9 4 -5 15 -2 22 8 22 8 0 18 7 21 16 3
9 13 14 21 10 9 -3 19 3 25 15 6 11 15 17 20 14 5 -3 11 -1 15 5 3 5 1 10 -6
10 -7 0 -9 3 -6 7 4 3 17 -2 29 -13 12 -10 18 -13 14 -6 -8 14 12 45 24 37 4
-3 13 2 20 10 14 17 30 20 30 5z m-410 -230 c-13 -8 -9 -13 10 -12 3 0 6 -12
6 -26 1 -15 -1 -21 -3 -14 -3 6 -10 9 -16 5 -18 -11 -38 -12 -31 -2 3 5 0 9
-5 9 -6 0 -11 -6 -12 -12 0 -10 -2 -10 -5 -1 -3 7 -13 9 -22 6 -15 -4 -15 -3
-2 6 13 9 13 11 0 11 -13 0 -13 2 -1 9 9 6 22 4 36 -5 20 -13 23 -13 29 2 4
12 2 15 -9 11 -8 -4 -17 -1 -21 5 -4 6 -3 8 2 5 6 -3 16 -2 24 4 8 5 20 9 25
9 6 0 3 -5 -5 -10z m-105 -49 c-8 -14 -25 -14 -25 0 0 5 5 7 10 4 6 -3 10 -1
10 6 0 7 3 10 6 6 3 -3 3 -10 -1 -16z m-3439 -3 c3 -4 -1 -5 -10 -4 -8 1 -18
5 -22 8 -3 4 1 5 10 4 8 -1 18 -5 22 -8z"/>
<path d="M4745 260 c-3 -6 1 -7 9 -4 18 7 21 14 7 14 -6 0 -13 -4 -16 -10z"/>
<path d="M4706 242 c-3 -5 1 -9 9 -9 8 0 12 4 9 9 -3 4 -7 8 -9 8 -2 0 -6 -4
-9 -8z"/>
<path d="M4665 210 c-3 -5 -12 -7 -20 -3 -14 5 -20 -8 -16 -31 1 -5 -5 -6 -13
-3 -10 4 -13 1 -9 -9 4 -12 13 -9 39 17 19 18 34 34 34 36 0 7 -9 2 -15 -7z"/>
<path d="M4493 104 c-12 -13 -18 -24 -13 -24 5 0 12 5 15 10 4 6 10 8 14 6 4
-3 8 4 8 15 1 10 1 19 0 18 -1 -1 -12 -12 -24 -25z"/>
<path d="M4386 33 c-6 -14 -5 -15 5 -6 7 7 10 15 7 18 -3 3 -9 -2 -12 -12z"/>
<path d="M5030 4306 c0 -2 7 -7 16 -10 8 -3 12 -2 9 4 -6 10 -25 14 -25 6z"/>
<path d="M5075 4180 c-3 -5 -1 -10 4 -10 6 0 11 5 11 10 0 6 -2 10 -4 10 -3 0
-8 -4 -11 -10z"/>
<path d="M5094 4142 c3 -5 0 -13 -6 -15 -9 -4 -10 -6 -1 -6 17 -1 25 16 12 25
-7 4 -9 3 -5 -4z"/>
<path d="M5086 894 c-3 -8 -2 -12 4 -9 6 3 10 -1 10 -10 0 -8 -7 -18 -15 -21
-8 -4 -15 -11 -15 -16 0 -7 5 -6 13 1 10 8 17 7 27 -2 10 -10 11 -9 4 3 -4 8
-7 25 -6 37 4 25 -13 39 -22 17z"/>
<path d="M5060 666 c0 -2 8 -10 18 -17 15 -13 16 -12 3 4 -13 16 -21 21 -21
13z"/>
<path d="M4983 596 c-10 -11 -9 -15 2 -20 8 -3 15 -11 14 -18 0 -10 -2 -10 -6
0 -6 16 -20 15 -26 -2 -3 -8 2 -20 11 -28 16 -12 16 -11 2 6 -14 18 -13 19 2
13 21 -7 35 10 20 25 -6 6 -8 17 -5 24 6 17 2 17 -14 0z"/>
<path d="M5034 595 c-4 -8 -11 -12 -17 -8 -5 3 -7 1 -4 -5 8 -12 32 -10 44 3
5 4 2 5 -6 0 -11 -6 -13 -4 -8 8 3 10 4 17 1 17 -2 0 -7 -7 -10 -15z"/>
<path d="M5026 538 c3 -5 10 -6 15 -3 13 9 11 12 -6 12 -8 0 -12 -4 -9 -9z"/>
<path d="M4990 499 c0 -5 5 -7 10 -4 6 3 10 8 10 11 0 2 -4 4 -10 4 -5 0 -10
-5 -10 -11z"/>
<path d="M4926 403 c-6 -14 -5 -15 5 -6 7 7 10 15 7 18 -3 3 -9 -2 -12 -12z"/>
<path d="M270 360 c0 -5 5 -10 11 -10 5 0 7 5 4 10 -3 6 -8 10 -11 10 -2 0 -4
-4 -4 -10z"/>
<path d="M4870 341 c0 -6 4 -12 8 -15 5 -3 9 1 9 9 0 8 -4 15 -9 15 -4 0 -8
-4 -8 -9z"/>
<path d="M4840 322 c0 -5 7 -9 15 -9 8 0 12 4 9 9 -3 4 -9 8 -15 8 -5 0 -9 -4
-9 -8z"/>
<path d="M4740 199 c0 -5 5 -7 10 -4 6 3 10 8 10 11 0 2 -4 4 -10 4 -5 0 -10
-5 -10 -11z"/>
<path d="M506 138 c3 -4 11 -5 19 -1 21 7 19 12 -4 10 -11 0 -18 -5 -15 -9z"/>
<path d="M590 120 c0 -5 5 -10 11 -10 5 0 7 5 4 10 -3 6 -8 10 -11 10 -2 0 -4
-4 -4 -10z"/>
<path d="M4639 123 c0 -5 -2 -16 -4 -26 -2 -11 -1 -16 3 -13 8 8 14 46 7 46
-3 0 -5 -3 -6 -7z"/>
<path d="M573 95 c0 -8 4 -12 9 -9 5 3 6 10 3 15 -9 13 -12 11 -12 -6z"/>
<path d="M595 81 c-3 -5 -2 -12 3 -15 5 -3 9 1 9 9 0 17 -3 19 -12 6z"/>
<path d="M4570 80 c0 -5 5 -10 10 -10 6 0 10 5 10 10 0 6 -4 10 -10 10 -5 0
-10 -4 -10 -10z"/>
</g>
</svg>
